<svg id="kity_svg_6" xmlns="http://www.w3.org/2000/svg" xmlns:xlink="http://www.w3.org/1999/xlink" version="1.1" width="1202" height="1184" style="background: rgb(251, 251, 251); visibility: visible;" viewBox="0 0 1202 1184"><defs id="kity_defs_7"><linearGradient id="kity_linearGradient_17" x1="0" y1="0" x2="0" y2="1"><stop id="kity_stop_18" offset="0" stop-color="rgb(255, 255, 255)"></stop><stop id="kity_stop_19" offset="1" stop-color="rgb(204, 204, 204)"></stop></linearGradient><marker id="kity_marker_2" orient="auto" refX="6" refY="0" viewBox="-7 -7 14 14" markerWidth="7" markerHeight="7" markerUnits="userSpaceOnUse"><path id="kity_path_3" fill="rgb(115, 161, 191)" stroke="none" d="M6,0A6,6,0,1,1,-6,0A6,6,0,1,1,6,0"></path></marker></defs><g id="kity_g_8"><g id="minder1" text-rendering="geometricPrecision"><g id="minder_connect_group1"><path id="kity_path_31" fill="none" stroke="rgb(115, 161, 191)" stroke-width="1" d="M546.5000114366412,618.5000044628978A224,498,0,0,1,770.5000114366412,120.50000446289778"></path><path id="kity_path_33" fill="none" stroke="rgb(115, 161, 191)" stroke-width="1" d="M884.5000114366412,120.50000446289778C899.5000114366412,120.50000446289778,899.5000114366412,79.50000446289778,914.5000114366412,79.50000446289778L1016.5000114366412,79.50000446289778"></path><path id="kity_path_35" fill="none" stroke="rgb(115, 161, 191)" stroke-width="1" d="M884.5000114366412,120.50000446289778C899.5000114366412,120.50000446289778,899.5000114366412,137.50000446289778,914.5000114366412,137.50000446289778L1027.5000114366412,137.50000446289778"></path><path id="kity_path_37" fill="none" stroke="rgb(115, 161, 191)" stroke-width="1" d="M884.5000114366412,120.50000446289778C899.5000114366412,120.50000446289778,899.5000114366412,195.50000446289778,914.5000114366412,195.50000446289778L1016.5000114366412,195.50000446289778"></path><path id="kity_path_39" fill="none" stroke="rgb(115, 161, 191)" stroke-width="1" d="M546.5000114366412,618.5000044628978A224,256,0,0,1,770.5000114366412,362.5000044628978"></path><path id="kity_path_41" fill="none" stroke="rgb(115, 161, 191)" stroke-width="1" d="M884.5000114366412,362.5000044628978C899.5000114366412,362.5000044628978,899.5000114366412,263.5000044628978,914.5000114366412,263.5000044628978L1016.5000114366412,263.5000044628978"></path><path id="kity_path_43" fill="none" stroke="rgb(115, 161, 191)" stroke-width="1" d="M884.5000114366412,362.5000044628978C899.5000114366412,362.5000044628978,899.5000114366412,321.5000044628978,914.5000114366412,321.5000044628978L1016.5000114366412,321.5000044628978"></path><path id="kity_path_45" fill="none" stroke="rgb(115, 161, 191)" stroke-width="1" d="M884.5000114366412,362.5000044628978C899.5000114366412,362.5000044628978,899.5000114366412,379.5000044628978,914.5000114366412,379.5000044628978L1016.5000114366412,379.5000044628978"></path><path id="kity_path_47" fill="none" stroke="rgb(115, 161, 191)" stroke-width="1" d="M884.5000114366412,362.5000044628978C899.5000114366412,362.5000044628978,899.5000114366412,437.5000044628978,914.5000114366412,437.5000044628978L1016.5000114366412,437.5000044628978"></path><path id="kity_path_49" fill="none" stroke="rgb(115, 161, 191)" stroke-width="1" d="M884.5000114366412,362.5000044628978C899.5000114366412,362.5000044628978,899.5000114366412,495.5000044628978,914.5000114366412,495.5000044628978L1016.5000114366412,495.5000044628978"></path><path id="kity_path_51" fill="none" stroke="rgb(115, 161, 191)" stroke-width="1" d="M546.5000114366412,618.5000044628978A224,73,0,0,0,770.5000114366412,691.5000044628978"></path><path id="kity_path_53" fill="none" stroke="rgb(115, 161, 191)" stroke-width="1" d="M884.5000114366412,691.5000044628978C899.5000114366412,691.5000044628978,899.5000114366412,563.5000044628978,914.5000114366412,563.5000044628978L1016.5000114366412,563.5000044628978"></path><path id="kity_path_55" fill="none" stroke="rgb(115, 161, 191)" stroke-width="1" d="M884.5000114366412,691.5000044628978C899.5000114366412,691.5000044628978,899.5000114366412,621.5000044628978,914.5000114366412,621.5000044628978L1016.5000114366412,621.5000044628978"></path><path id="kity_path_57" fill="none" stroke="rgb(115, 161, 191)" stroke-width="1" d="M884.5000114366412,691.5000044628978C899.5000114366412,691.5000044628978,899.5000114366412,679.5000044628978,914.5000114366412,679.5000044628978L1016.5000114366412,679.5000044628978"></path><path id="kity_path_59" fill="none" stroke="rgb(115, 161, 191)" stroke-width="1" d="M884.5000114366412,691.5000044628978C899.5000114366412,691.5000044628978,899.5000114366412,737.5000044628978,914.5000114366412,737.5000044628978L1016.5000114366412,737.5000044628978"></path><path id="kity_path_61" fill="none" stroke="rgb(115, 161, 191)" stroke-width="1" d="M884.5000114366412,691.5000044628978C899.5000114366412,691.5000044628978,899.5000114366412,795.5000044628978,914.5000114366412,795.5000044628978L1052.5000114366412,795.5000044628978"></path><path id="kity_path_63" fill="none" stroke="rgb(115, 161, 191)" stroke-width="1" d="M884.5000114366412,691.5000044628978C899.5000114366412,691.5000044628978,899.5000114366412,853.5000044628978,914.5000114366412,853.5000044628978L1052.5000114366412,853.5000044628978"></path><path id="kity_path_65" fill="none" stroke="rgb(115, 161, 191)" stroke-width="1" d="M546.5000114366412,618.5000044628978A224,329,0,0,0,770.5000114366412,947.5000044628978"></path><path id="kity_path_67" fill="none" stroke="rgb(115, 161, 191)" stroke-width="1" d="M885.5000114366412,947.5000044628978C900.5000114366412,947.5000044628978,900.5000114366412,921.5000044628978,915.5000114366412,921.5000044628978L1018.5000114366412,921.5000044628978"></path><path id="kity_path_69" fill="none" stroke="rgb(115, 161, 191)" stroke-width="1" d="M885.5000114366412,947.5000044628978C900.5000114366412,947.5000044628978,900.5000114366412,1008.5000044628978,915.5000114366412,1008.5000044628978L1018.5000114366412,1008.5000044628978"></path><path id="kity_path_71" fill="none" stroke="rgb(115, 161, 191)" stroke-width="1" d="M1018.5000114366412,1008.5000044628978C1033.5000114366412,1008.5000044628978,1033.5000114366412,979.5000044628978,1048.5000114366412,979.5000044628978L1161.5000114366412,979.5000044628978"></path><path id="kity_path_73" fill="none" stroke="rgb(115, 161, 191)" stroke-width="1" d="M1018.5000114366412,1008.5000044628978C1033.5000114366412,1008.5000044628978,1033.5000114366412,1037.5000044628978,1048.5000114366412,1037.5000044628978L1182.5000114366412,1037.5000044628978"></path><path id="kity_path_75" fill="none" stroke="rgb(115, 161, 191)" stroke-width="1" d="M546.5000114366412,618.5000044628978A224,499,0,0,0,770.5000114366412,1117.5000044628978"></path><path id="kity_path_77" fill="none" stroke="rgb(115, 161, 191)" stroke-width="1" d="M849.5000114366412,1117.5000044628978C864.5000114366412,1117.5000044628978,864.5000114366412,1105.5000044628978,879.5000114366412,1105.5000044628978L963.5000114366412,1105.5000044628978"></path><path id="kity_path_79" fill="none" stroke="rgb(115, 161, 191)" stroke-width="1" d="M849.5000114366412,1117.5000044628978C864.5000114366412,1117.5000044628978,864.5000114366412,1163.5000044628978,879.5000114366412,1163.5000044628978L945.5000114366412,1163.5000044628978"></path><path id="kity_path_81" fill="none" stroke="rgb(115, 161, 191)" stroke-width="1" d="M546.5000114366412,618.5000044628978A224,469,0,0,0,322.5000114366412,149.50000446289778"></path><path id="kity_path_83" fill="none" stroke="rgb(115, 161, 191)" stroke-width="1" d="M208.50001143664122,149.50000446289778C193.50001143664122,149.50000446289778,193.50001143664122,50.50000446289778,178.50001143664122,50.50000446289778L76.50001143664122,50.50000446289778"></path><path id="kity_path_85" fill="none" stroke="rgb(115, 161, 191)" stroke-width="1" d="M208.50001143664122,149.50000446289778C193.50001143664122,149.50000446289778,193.50001143664122,108.50000446289778,178.50001143664122,108.50000446289778L75.50001143664122,108.50000446289778"></path><path id="kity_path_87" fill="none" stroke="rgb(115, 161, 191)" stroke-width="1" d="M208.50001143664122,149.50000446289778C193.50001143664122,149.50000446289778,193.50001143664122,166.50000446289778,178.50001143664122,166.50000446289778L75.50001143664122,166.50000446289778"></path><path id="kity_path_89" fill="none" stroke="rgb(115, 161, 191)" stroke-width="1" d="M208.50001143664122,149.50000446289778C193.50001143664122,149.50000446289778,193.50001143664122,224.50000446289778,178.50001143664122,224.50000446289778L75.50001143664122,224.50000446289778"></path><path id="kity_path_91" fill="none" stroke="rgb(115, 161, 191)" stroke-width="1" d="M208.50001143664122,149.50000446289778C193.50001143664122,149.50000446289778,193.50001143664122,282.5000044628978,178.50001143664122,282.5000044628978L68.50001143664122,282.5000044628978"></path><path id="kity_path_93" fill="none" stroke="rgb(115, 161, 191)" stroke-width="1" d="M546.5000114366412,618.5000044628978A224,198,0,0,0,322.5000114366412,420.5000044628978"></path><path id="kity_path_95" fill="none" stroke="rgb(115, 161, 191)" stroke-width="1" d="M208.50001143664122,420.5000044628978C193.50001143664122,420.5000044628978,193.50001143664122,350.5000044628978,178.50001143664122,350.5000044628978L76.50001143664122,350.5000044628978"></path><path id="kity_path_97" fill="none" stroke="rgb(115, 161, 191)" stroke-width="1" d="M208.50001143664122,420.5000044628978C193.50001143664122,420.5000044628978,193.50001143664122,408.5000044628978,178.50001143664122,408.5000044628978L76.50001143664122,408.5000044628978"></path><path id="kity_path_99" fill="none" stroke="rgb(115, 161, 191)" stroke-width="1" d="M208.50001143664122,420.5000044628978C193.50001143664122,420.5000044628978,193.50001143664122,466.5000044628978,178.50001143664122,466.5000044628978L76.50001143664122,466.5000044628978"></path><path id="kity_path_101" fill="none" stroke="rgb(115, 161, 191)" stroke-width="1" d="M208.50001143664122,420.5000044628978C193.50001143664122,420.5000044628978,193.50001143664122,524.5000044628978,178.50001143664122,524.5000044628978L76.50001143664122,524.5000044628978"></path><path id="kity_path_103" fill="none" stroke="rgb(115, 161, 191)" stroke-width="1" d="M546.5000114366412,618.5000044628978A224,44,0,0,1,322.5000114366412,662.5000044628978"></path><path id="kity_path_105" fill="none" stroke="rgb(115, 161, 191)" stroke-width="1" d="M171.50001143664122,662.5000044628978C156.50001143664122,662.5000044628978,156.50001143664122,592.5000044628978,141.50001143664122,592.5000044628978L20.500011436641216,592.5000044628978"></path><path id="kity_path_107" fill="none" stroke="rgb(115, 161, 191)" stroke-width="1" d="M171.50001143664122,662.5000044628978C156.50001143664122,662.5000044628978,156.50001143664122,650.5000044628978,141.50001143664122,650.5000044628978L38.500011436641216,650.5000044628978"></path><path id="kity_path_109" fill="none" stroke="rgb(115, 161, 191)" stroke-width="1" d="M171.50001143664122,662.5000044628978C156.50001143664122,662.5000044628978,156.50001143664122,708.5000044628978,141.50001143664122,708.5000044628978L39.500011436641216,708.5000044628978"></path><path id="kity_path_111" fill="none" stroke="rgb(115, 161, 191)" stroke-width="1" d="M171.50001143664122,662.5000044628978C156.50001143664122,662.5000044628978,156.50001143664122,766.5000044628978,141.50001143664122,766.5000044628978L39.500011436641216,766.5000044628978"></path><path id="kity_path_113" fill="none" stroke="rgb(115, 161, 191)" stroke-width="1" d="M546.5000114366412,618.5000044628978A224,286,0,0,1,322.5000114366412,904.5000044628978"></path><path id="kity_path_115" fill="none" stroke="rgb(115, 161, 191)" stroke-width="1" d="M208.50001143664122,904.5000044628978C193.50001143664122,904.5000044628978,193.50001143664122,834.5000044628978,178.50001143664122,834.5000044628978L76.50001143664122,834.5000044628978"></path><path id="kity_path_117" fill="none" stroke="rgb(115, 161, 191)" stroke-width="1" d="M208.50001143664122,904.5000044628978C193.50001143664122,904.5000044628978,193.50001143664122,892.5000044628978,178.50001143664122,892.5000044628978L76.50001143664122,892.5000044628978"></path><path id="kity_path_119" fill="none" stroke="rgb(115, 161, 191)" stroke-width="1" d="M208.50001143664122,904.5000044628978C193.50001143664122,904.5000044628978,193.50001143664122,950.5000044628978,178.50001143664122,950.5000044628978L76.50001143664122,950.5000044628978"></path><path id="kity_path_121" fill="none" stroke="rgb(115, 161, 191)" stroke-width="1" d="M208.50001143664122,904.5000044628978C193.50001143664122,904.5000044628978,193.50001143664122,1008.5000044628978,178.50001143664122,1008.5000044628978L76.50001143664122,1008.5000044628978"></path><path id="kity_path_123" fill="none" stroke="rgb(115, 161, 191)" stroke-width="1" d="M546.5000114366412,618.5000044628978A224,470,0,0,1,322.5000114366412,1088.5000044628978"></path><path id="kity_path_125" fill="none" stroke="rgb(115, 161, 191)" stroke-width="1" d="M207.50001143664122,1088.5000044628978C192.50001143664122,1088.5000044628978,192.50001143664122,1076.5000044628978,177.50001143664122,1076.5000044628978L75.50001143664122,1076.5000044628978"></path><path id="kity_path_127" fill="none" stroke="rgb(115, 161, 191)" stroke-width="1" d="M207.50001143664122,1088.5000044628978C192.50001143664122,1088.5000044628978,192.50001143664122,1134.5000044628978,177.50001143664122,1134.5000044628978L74.50001143664122,1134.5000044628978"></path></g><g id="minder_node1"><path id="node_outline1" fill="#f2f2f2" stroke="rgb(115, 161, 191)" d="M445.5000114366412,597.5000044628978h202a5,5,0,0,1,5,5v32a5,5,0,0,1,-5,5h-202a5,5,0,0,1,-5,-5v-32a5,5,0,0,1,5,-5z" stroke-width="3"></path><g id="node_text1" fill="#000000"><text id="kity_text_22" text-rendering="inherit" font-size="18" dy=".8em" y="609.5000044628978" font-family="宋体,SimSun" x="464.5000114366412">容器管理和监控平台</text></g></g><g id="kity_g_12"><path id="kity_path_13" fill="none" stroke="none" d="M464.5000114366412,618.5000044628978h0v0h0z"></path></g><g id="kity_g_14"><path id="kity_path_15" fill="none" stroke="none" d="M464.5000114366412,618.5000044628978h0v0h0z"></path><path id="kity_path_16" fill="none" stroke="none"></path></g><g id="minder_node2"><g id="node_expander4" style="cursor: pointer;"><path id="kity_path_285" fill="white" stroke="gray" d="M771.5000159218907,120.4999970421195A6,6,0,1,1,759.5000159218907,120.4999970421195A6,6,0,1,1,771.5000159218907,120.4999970421195"></path><path id="kity_path_286" fill="none" stroke="gray" d="M761.0000159218907,120.4999970421195L770.0000159218907,120.4999970421195"></path></g><path id="node_outline5" fill="rgb(238, 243, 246)" stroke="rgb(115, 161, 191)" d="M775.5000163242221,105.4999970421195h106a3,3,0,0,1,3,3v24a3,3,0,0,1,-3,3h-106a3,3,0,0,1,-3,-3v-24a3,3,0,0,1,3,-3z" stroke-width="1"></path><g id="node_text5" fill="black"><text id="kity_text_135" text-rendering="inherit" font-family="宋体,SimSun" font-size="18" dy=".8em" y="111.4999970421195" x="792.5000163242221">认证模块</text></g></g><g id="minder_node3"><g id="node_expander1" style="cursor: pointer;" display="none"><path id="kity_path_276" fill="white" stroke="gray" d="M924.5000182017684,62.499996177852154A6,6,0,1,1,912.5000182017684,62.499996177852154A6,6,0,1,1,924.5000182017684,62.499996177852154"></path><path id="kity_path_277" fill="none" stroke="gray"></path></g><path id="node_outline2" fill="none" stroke="none" d="M929.500018440187,48.499996177852154h82a5,5,0,0,1,5,5v18a5,5,0,0,1,-5,5h-82a5,5,0,0,1,-5,-5v-18a5,5,0,0,1,5,-5z" stroke-width="3"></path><g id="node_text2" fill="black"><text id="kity_text_129" text-rendering="inherit" font-family="宋体,SimSun" font-size="18" dy=".8em" y="53.499996177852154" x="934.500018440187">本地登录</text></g></g><g id="minder_node4"><g id="node_expander2" style="cursor: pointer;" display="none"><path id="kity_path_279" fill="white" stroke="gray" d="M924.5000182017684,120.4999970421195A6,6,0,1,1,912.5000182017684,120.4999970421195A6,6,0,1,1,924.5000182017684,120.4999970421195"></path><path id="kity_path_280" fill="none" stroke="gray"></path></g><path id="node_outline3" fill="none" stroke="none" d="M929.500018440187,106.4999970421195h93a5,5,0,0,1,5,5v18a5,5,0,0,1,-5,5h-93a5,5,0,0,1,-5,-5v-18a5,5,0,0,1,5,-5z" stroke-width="3"></path><g id="node_text3" fill="black"><text id="kity_text_131" text-rendering="inherit" font-family="宋体,SimSun" font-size="18" dy=".8em" y="111.4999970421195" x="934.500018440187">LDAP登录</text></g></g><g id="minder_node5"><g id="node_expander3" style="cursor: pointer;" display="none"><path id="kity_path_282" fill="white" stroke="gray" d="M924.5000182017684,178.49999790638685A6,6,0,1,1,912.5000182017684,178.49999790638685A6,6,0,1,1,924.5000182017684,178.49999790638685"></path><path id="kity_path_283" fill="none" stroke="gray"></path></g><path id="node_outline4" fill="none" stroke="none" d="M929.500018440187,164.49999790638685h82a5,5,0,0,1,5,5v18a5,5,0,0,1,-5,5h-82a5,5,0,0,1,-5,-5v-18a5,5,0,0,1,5,-5z" stroke-width="3"></path><g id="node_text4" fill="black"><text id="kity_text_133" text-rendering="inherit" font-family="宋体,SimSun" font-size="18" dy=".8em" y="169.49999790638685" x="934.500018440187">修改密码</text></g></g><g id="minder_node6"><g id="node_expander10" style="cursor: pointer;"><path id="kity_path_303" fill="white" stroke="gray" d="M771.5000159218907,362.5000006482005A6,6,0,1,1,759.5000159218907,362.5000006482005A6,6,0,1,1,771.5000159218907,362.5000006482005"></path><path id="kity_path_304" fill="none" stroke="gray" d="M761.0000159218907,362.5000006482005L770.0000159218907,362.5000006482005"></path></g><path id="node_outline11" fill="rgb(238, 243, 246)" stroke="rgb(115, 161, 191)" d="M775.5000163242221,347.5000006482005h106a3,3,0,0,1,3,3v24a3,3,0,0,1,-3,3h-106a3,3,0,0,1,-3,-3v-24a3,3,0,0,1,3,-3z" stroke-width="1"></path><g id="node_text11" fill="black"><text id="kity_text_147" text-rendering="inherit" font-family="宋体,SimSun" font-size="18" dy=".8em" y="353.5000006482005" x="792.5000163242221">用户管理</text></g></g><g id="minder_node7"><g id="node_expander5" style="cursor: pointer;" display="none"><path id="kity_path_288" fill="white" stroke="gray" d="M924.5000182017684,246.4999989196658A6,6,0,1,1,912.5000182017684,246.4999989196658A6,6,0,1,1,924.5000182017684,246.4999989196658"></path><path id="kity_path_289" fill="none" stroke="gray"></path></g><path id="node_outline6" fill="none" stroke="none" d="M929.500018440187,232.4999989196658h82a5,5,0,0,1,5,5v18a5,5,0,0,1,-5,5h-82a5,5,0,0,1,-5,-5v-18a5,5,0,0,1,5,-5z" stroke-width="3"></path><g id="node_text6" fill="black"><text id="kity_text_137" text-rendering="inherit" font-family="宋体,SimSun" font-size="18" dy=".8em" y="237.4999989196658" x="934.500018440187">用户列表</text></g></g><g id="minder_node8"><g id="node_expander6" style="cursor: pointer;" display="none"><path id="kity_path_291" fill="white" stroke="gray" d="M924.5000182017684,304.49999978393316A6,6,0,1,1,912.5000182017684,304.49999978393316A6,6,0,1,1,924.5000182017684,304.49999978393316"></path><path id="kity_path_292" fill="none" stroke="gray"></path></g><path id="node_outline7" fill="none" stroke="none" d="M929.500018440187,290.49999978393316h82a5,5,0,0,1,5,5v18a5,5,0,0,1,-5,5h-82a5,5,0,0,1,-5,-5v-18a5,5,0,0,1,5,-5z" stroke-width="3"></path><g id="node_text7" fill="black"><text id="kity_text_139" text-rendering="inherit" font-family="宋体,SimSun" font-size="18" dy=".8em" y="295.49999978393316" x="934.500018440187">新建用户</text></g></g><g id="minder_node9"><g id="node_expander7" style="cursor: pointer;" display="none"><path id="kity_path_294" fill="white" stroke="gray" d="M924.5000182017684,362.5000006482005A6,6,0,1,1,912.5000182017684,362.5000006482005A6,6,0,1,1,924.5000182017684,362.5000006482005"></path><path id="kity_path_295" fill="none" stroke="gray"></path></g><path id="node_outline8" fill="none" stroke="none" d="M929.500018440187,348.5000006482005h82a5,5,0,0,1,5,5v18a5,5,0,0,1,-5,5h-82a5,5,0,0,1,-5,-5v-18a5,5,0,0,1,5,-5z" stroke-width="3"></path><g id="node_text8" fill="black"><text id="kity_text_141" text-rendering="inherit" font-family="宋体,SimSun" font-size="18" dy=".8em" y="353.5000006482005" x="934.500018440187">编辑用户</text></g></g><g id="minder_node10"><g id="node_expander8" style="cursor: pointer;" display="none"><path id="kity_path_297" fill="white" stroke="gray" d="M924.5000182017684,420.50000151246786A6,6,0,1,1,912.5000182017684,420.50000151246786A6,6,0,1,1,924.5000182017684,420.50000151246786"></path><path id="kity_path_298" fill="none" stroke="gray"></path></g><path id="node_outline9" fill="none" stroke="none" d="M929.500018440187,406.50000151246786h82a5,5,0,0,1,5,5v18a5,5,0,0,1,-5,5h-82a5,5,0,0,1,-5,-5v-18a5,5,0,0,1,5,-5z" stroke-width="3"></path><g id="node_text9" fill="black"><text id="kity_text_143" text-rendering="inherit" font-family="宋体,SimSun" font-size="18" dy=".8em" y="411.50000151246786" x="934.500018440187">删除用户</text></g></g><g id="minder_node11"><g id="node_expander9" style="cursor: pointer;" display="none"><path id="kity_path_300" fill="white" stroke="gray" d="M924.5000182017684,478.5000023767352A6,6,0,1,1,912.5000182017684,478.5000023767352A6,6,0,1,1,924.5000182017684,478.5000023767352"></path><path id="kity_path_301" fill="none" stroke="gray"></path></g><path id="node_outline10" fill="none" stroke="none" d="M929.500018440187,464.5000023767352h82a5,5,0,0,1,5,5v18a5,5,0,0,1,-5,5h-82a5,5,0,0,1,-5,-5v-18a5,5,0,0,1,5,-5z" stroke-width="3"></path><g id="node_text10" fill="black"><text id="kity_text_145" text-rendering="inherit" font-family="宋体,SimSun" font-size="18" dy=".8em" y="469.5000023767352" x="934.500018440187">重置密码</text></g></g><g id="minder_node12"><g id="node_expander17" style="cursor: pointer;"><path id="kity_path_324" fill="white" stroke="gray" d="M771.5000159218907,691.5000055506825A6,6,0,1,1,759.5000159218907,691.5000055506825A6,6,0,1,1,771.5000159218907,691.5000055506825"></path><path id="kity_path_325" fill="none" stroke="gray" d="M761.0000159218907,691.5000055506825L770.0000159218907,691.5000055506825"></path></g><path id="node_outline18" fill="rgb(238, 243, 246)" stroke="rgb(115, 161, 191)" d="M775.5000163242221,676.5000055506825h106a3,3,0,0,1,3,3v24a3,3,0,0,1,-3,3h-106a3,3,0,0,1,-3,-3v-24a3,3,0,0,1,3,-3z" stroke-width="1"></path><g id="node_text18" fill="black"><text id="kity_text_161" text-rendering="inherit" font-family="宋体,SimSun" font-size="18" dy=".8em" y="682.5000055506825" x="792.5000163242221">角色管理</text></g></g><g id="minder_node13"><g id="node_expander11" style="cursor: pointer;" display="none"><path id="kity_path_306" fill="white" stroke="gray" d="M924.5000182017684,546.5000033900142A6,6,0,1,1,912.5000182017684,546.5000033900142A6,6,0,1,1,924.5000182017684,546.5000033900142"></path><path id="kity_path_307" fill="none" stroke="gray"></path></g><path id="node_outline12" fill="none" stroke="none" d="M929.500018440187,532.5000033900142h82a5,5,0,0,1,5,5v18a5,5,0,0,1,-5,5h-82a5,5,0,0,1,-5,-5v-18a5,5,0,0,1,5,-5z" stroke-width="3"></path><g id="node_text12" fill="black"><text id="kity_text_149" text-rendering="inherit" font-family="宋体,SimSun" font-size="18" dy=".8em" y="537.5000033900142" x="934.500018440187">角色列表</text></g></g><g id="minder_node14"><g id="node_expander12" style="cursor: pointer;" display="none"><path id="kity_path_309" fill="white" stroke="gray" d="M924.5000182017684,604.5000042542815A6,6,0,1,1,912.5000182017684,604.5000042542815A6,6,0,1,1,924.5000182017684,604.5000042542815"></path><path id="kity_path_310" fill="none" stroke="gray"></path></g><path id="node_outline13" fill="none" stroke="none" d="M929.500018440187,590.5000042542815h82a5,5,0,0,1,5,5v18a5,5,0,0,1,-5,5h-82a5,5,0,0,1,-5,-5v-18a5,5,0,0,1,5,-5z" stroke-width="3"></path><g id="node_text13" fill="black"><text id="kity_text_151" text-rendering="inherit" font-family="宋体,SimSun" font-size="18" dy=".8em" y="595.5000042542815" x="934.500018440187">新建角色</text></g></g><g id="minder_node15"><g id="node_expander13" style="cursor: pointer;" display="none"><path id="kity_path_312" fill="white" stroke="gray" d="M924.5000182017684,662.5000051185489A6,6,0,1,1,912.5000182017684,662.5000051185489A6,6,0,1,1,924.5000182017684,662.5000051185489"></path><path id="kity_path_313" fill="none" stroke="gray"></path></g><path id="node_outline14" fill="none" stroke="none" d="M929.500018440187,648.5000051185489h82a5,5,0,0,1,5,5v18a5,5,0,0,1,-5,5h-82a5,5,0,0,1,-5,-5v-18a5,5,0,0,1,5,-5z" stroke-width="3"></path><g id="node_text14" fill="black"><text id="kity_text_153" text-rendering="inherit" font-family="宋体,SimSun" font-size="18" dy=".8em" y="653.5000051185489" x="934.500018440187">编辑角色</text></g></g><g id="minder_node16"><g id="node_expander14" style="cursor: pointer;" display="none"><path id="kity_path_315" fill="white" stroke="gray" d="M924.5000182017684,720.5000059828162A6,6,0,1,1,912.5000182017684,720.5000059828162A6,6,0,1,1,924.5000182017684,720.5000059828162"></path><path id="kity_path_316" fill="none" stroke="gray"></path></g><path id="node_outline15" fill="none" stroke="none" d="M929.500018440187,706.5000059828162h82a5,5,0,0,1,5,5v18a5,5,0,0,1,-5,5h-82a5,5,0,0,1,-5,-5v-18a5,5,0,0,1,5,-5z" stroke-width="3"></path><g id="node_text15" fill="black"><text id="kity_text_155" text-rendering="inherit" font-family="宋体,SimSun" font-size="18" dy=".8em" y="711.5000059828162" x="934.500018440187">删除角色</text></g></g><g id="minder_node17"><g id="node_expander15" style="cursor: pointer;" display="none"><path id="kity_path_318" fill="white" stroke="gray" d="M924.5000182017684,778.5000068470836A6,6,0,1,1,912.5000182017684,778.5000068470836A6,6,0,1,1,924.5000182017684,778.5000068470836"></path><path id="kity_path_319" fill="none" stroke="gray"></path></g><path id="node_outline16" fill="none" stroke="none" d="M929.500018440187,764.5000068470836h118a5,5,0,0,1,5,5v18a5,5,0,0,1,-5,5h-118a5,5,0,0,1,-5,-5v-18a5,5,0,0,1,5,-5z" stroke-width="3"></path><g id="node_text16" fill="black"><text id="kity_text_157" text-rendering="inherit" font-family="宋体,SimSun" font-size="18" dy=".8em" y="769.5000068470836" x="934.500018440187">角色菜单编辑</text></g></g><g id="minder_node18"><g id="node_expander16" style="cursor: pointer;" display="none"><path id="kity_path_321" fill="white" stroke="gray" d="M924.5000182017684,836.5000077113509A6,6,0,1,1,912.5000182017684,836.5000077113509A6,6,0,1,1,924.5000182017684,836.5000077113509"></path><path id="kity_path_322" fill="none" stroke="gray"></path></g><path id="node_outline17" fill="none" stroke="none" d="M929.500018440187,822.5000077113509h118a5,5,0,0,1,5,5v18a5,5,0,0,1,-5,5h-118a5,5,0,0,1,-5,-5v-18a5,5,0,0,1,5,-5z" stroke-width="3"></path><g id="node_text17" fill="black"><text id="kity_text_159" text-rendering="inherit" font-family="宋体,SimSun" font-size="18" dy=".8em" y="827.5000077113509" x="934.500018440187">角色权限编辑</text></g></g><g id="minder_node19"><g id="node_expander22" style="cursor: pointer;"><path id="kity_path_339" fill="white" stroke="gray" d="M771.5000159218907,947.5000093653798A6,6,0,1,1,759.5000159218907,947.5000093653798A6,6,0,1,1,771.5000159218907,947.5000093653798"></path><path id="kity_path_340" fill="none" stroke="gray" d="M761.0000159218907,947.5000093653798L770.0000159218907,947.5000093653798"></path></g><path id="node_outline23" fill="rgb(238, 243, 246)" stroke="rgb(115, 161, 191)" d="M775.5000163242221,932.5000093653798h107a3,3,0,0,1,3,3v24a3,3,0,0,1,-3,3h-107a3,3,0,0,1,-3,-3v-24a3,3,0,0,1,3,-3z" stroke-width="1"></path><g id="node_text23" fill="black"><text id="kity_text_171" text-rendering="inherit" font-family="宋体,SimSun" font-size="18" dy=".8em" y="938.5000093653798" x="792.5000163242221">系统管理</text></g></g><g id="minder_node20"><g id="node_expander18" style="cursor: pointer;" display="none"><path id="kity_path_327" fill="white" stroke="gray" d="M925.5000182166696,904.5000087246299A6,6,0,1,1,913.5000182166696,904.5000087246299A6,6,0,1,1,925.5000182166696,904.5000087246299"></path><path id="kity_path_328" fill="none" stroke="gray"></path></g><path id="node_outline19" fill="none" stroke="none" d="M930.5000184550881,890.5000087246299h83a5,5,0,0,1,5,5v18a5,5,0,0,1,-5,5h-83a5,5,0,0,1,-5,-5v-18a5,5,0,0,1,5,-5z" stroke-width="3"></path><g id="node_text19" fill="black"><text id="kity_text_163" text-rendering="inherit" font-family="宋体,SimSun" font-size="18" dy=".8em" y="895.5000087246299" x="935.5000184550881">操作日志</text></g></g><g id="minder_node21"><g id="node_expander21" style="cursor: pointer;"><path id="kity_path_336" fill="white" stroke="gray" d="M925.5000182166696,991.5000100210309A6,6,0,1,1,913.5000182166696,991.5000100210309A6,6,0,1,1,925.5000182166696,991.5000100210309"></path><path id="kity_path_337" fill="none" stroke="gray" d="M915.0000182166696,991.5000100210309L924.0000182166696,991.5000100210309"></path></g><path id="node_outline22" fill="none" stroke="none" d="M930.5000184550881,977.5000100210309h83a5,5,0,0,1,5,5v18a5,5,0,0,1,-5,5h-83a5,5,0,0,1,-5,-5v-18a5,5,0,0,1,5,-5z" stroke-width="3"></path><g id="node_text22" fill="black"><text id="kity_text_169" text-rendering="inherit" font-family="宋体,SimSun" font-size="18" dy=".8em" y="982.5000100210309" x="935.5000184550881">系统设置</text></g></g><g id="minder_node22"><g id="node_expander19" style="cursor: pointer;" display="none"><path id="kity_path_330" fill="white" stroke="gray" d="M1058.500020198524,962.5000095888972A6,6,0,1,1,1046.500020198524,962.5000095888972A6,6,0,1,1,1058.500020198524,962.5000095888972"></path><path id="kity_path_331" fill="none" stroke="gray"></path></g><path id="node_outline20" fill="none" stroke="none" d="M1063.5000204369426,948.5000095888972h93a5,5,0,0,1,5,5v18a5,5,0,0,1,-5,5h-93a5,5,0,0,1,-5,-5v-18a5,5,0,0,1,5,-5z" stroke-width="3"></path><g id="node_text20" fill="black"><text id="kity_text_165" text-rendering="inherit" font-family="宋体,SimSun" font-size="18" dy=".8em" y="953.5000095888972" x="1068.5000204369426">LDAP设置</text></g></g><g id="minder_node23"><g id="node_expander20" style="cursor: pointer;" display="none"><path id="kity_path_333" fill="white" stroke="gray" d="M1058.500020198524,1020.5000104531646A6,6,0,1,1,1046.500020198524,1020.5000104531646A6,6,0,1,1,1058.500020198524,1020.5000104531646"></path><path id="kity_path_334" fill="none" stroke="gray"></path></g><path id="node_outline21" fill="none" stroke="none" d="M1063.5000204369426,1006.5000104531646h114a5,5,0,0,1,5,5v18a5,5,0,0,1,-5,5h-114a5,5,0,0,1,-5,-5v-18a5,5,0,0,1,5,-5z" stroke-width="3"></path><g id="node_text21" fill="black"><text id="kity_text_167" text-rendering="inherit" font-family="宋体,SimSun" font-size="18" dy=".8em" y="1011.5000104531646" x="1068.5000204369426">Grafana地址</text></g></g><g id="minder_node24"><g id="node_expander25" style="cursor: pointer;"><path id="kity_path_348" fill="white" stroke="gray" d="M771.5000159218907,1117.5000118985772A6,6,0,1,1,759.5000159218907,1117.5000118985772A6,6,0,1,1,771.5000159218907,1117.5000118985772"></path><path id="kity_path_349" fill="none" stroke="gray" d="M761.0000159218907,1117.5000118985772L770.0000159218907,1117.5000118985772"></path></g><path id="node_outline26" fill="rgb(238, 243, 246)" stroke="rgb(115, 161, 191)" d="M775.5000163242221,1102.5000118985772h71a3,3,0,0,1,3,3v24a3,3,0,0,1,-3,3h-71a3,3,0,0,1,-3,-3v-24a3,3,0,0,1,3,-3z" stroke-width="1"></path><g id="node_text26" fill="black"><text id="kity_text_177" text-rendering="inherit" font-family="宋体,SimSun" font-size="18" dy=".8em" y="1108.5000118985772" x="792.5000163242221">其他</text></g></g><g id="minder_node25"><g id="node_expander23" style="cursor: pointer;" display="none"><path id="kity_path_342" fill="white" stroke="gray" d="M889.5000176802278,1088.5000114664435A6,6,0,1,1,877.5000176802278,1088.5000114664435A6,6,0,1,1,889.5000176802278,1088.5000114664435"></path><path id="kity_path_343" fill="none" stroke="gray"></path></g><path id="node_outline24" fill="none" stroke="none" d="M894.5000179186463,1074.5000114664435h64a5,5,0,0,1,5,5v18a5,5,0,0,1,-5,5h-64a5,5,0,0,1,-5,-5v-18a5,5,0,0,1,5,-5z" stroke-width="3"></path><g id="node_text24" fill="black"><text id="kity_text_173" text-rendering="inherit" font-family="宋体,SimSun" font-size="18" dy=".8em" y="1079.5000114664435" x="899.5000179186463">国际化</text></g></g><g id="minder_node26"><g id="node_expander24" style="cursor: pointer;" display="none"><path id="kity_path_345" fill="white" stroke="gray" d="M889.5000176802278,1146.500012330711A6,6,0,1,1,877.5000176802278,1146.500012330711A6,6,0,1,1,889.5000176802278,1146.500012330711"></path><path id="kity_path_346" fill="none" stroke="gray"></path></g><path id="node_outline25" fill="none" stroke="none" d="M894.5000179186463,1132.500012330711h46a5,5,0,0,1,5,5v18a5,5,0,0,1,-5,5h-46a5,5,0,0,1,-5,-5v-18a5,5,0,0,1,5,-5z" stroke-width="3"></path><g id="node_text25" fill="black"><text id="kity_text_175" text-rendering="inherit" font-family="宋体,SimSun" font-size="18" dy=".8em" y="1137.500012330711" x="899.5000179186463">关于</text></g></g><g id="minder_node27"><g id="node_expander31" style="cursor: pointer;"><path id="kity_path_366" fill="white" stroke="gray" d="M333.50000939518213,149.49999747425318A6,6,0,1,1,321.50000939518213,149.49999747425318A6,6,0,1,1,333.50000939518213,149.49999747425318"></path><path id="kity_path_367" fill="none" stroke="gray" d="M323.00000939518213,149.49999747425318L332.00000939518213,149.49999747425318"></path></g><path id="node_outline32" fill="rgb(238, 243, 246)" stroke="rgb(115, 161, 191)" d="M211.50000791996717,134.49999747425318h106a3,3,0,0,1,3,3v24a3,3,0,0,1,-3,3h-106a3,3,0,0,1,-3,-3v-24a3,3,0,0,1,3,-3z" stroke-width="1"></path><g id="node_text32" fill="black"><text id="kity_text_189" text-rendering="inherit" font-family="宋体,SimSun" font-size="18" dy=".8em" y="140.49999747425318" x="228.50000791996717">主机管理</text></g></g><g id="minder_node28"><g id="node_expander26" style="cursor: pointer;" display="none"><path id="kity_path_351" fill="white" stroke="gray" d="M180.50000711530447,33.49999574571848A6,6,0,1,1,168.50000711530447,33.49999574571848A6,6,0,1,1,180.50000711530447,33.49999574571848"></path><path id="kity_path_352" fill="none" stroke="gray"></path></g><path id="node_outline27" fill="none" stroke="none" d="M81.50000580400229,19.49999574571848h82a5,5,0,0,1,5,5v18a5,5,0,0,1,-5,5h-82a5,5,0,0,1,-5,-5v-18a5,5,0,0,1,5,-5z" stroke-width="3"></path><g id="node_text27" fill="black"><text id="kity_text_179" text-rendering="inherit" font-family="宋体,SimSun" font-size="18" dy=".8em" y="24.49999574571848" x="86.50000580400229">主机列表</text></g></g><g id="minder_node29"><g id="node_expander27" style="cursor: pointer;" display="none"><path id="kity_path_354" fill="white" stroke="gray" d="M180.50000711530447,91.49999660998583A6,6,0,1,1,168.50000711530447,91.49999660998583A6,6,0,1,1,180.50000711530447,91.49999660998583"></path><path id="kity_path_355" fill="none" stroke="gray"></path></g><path id="node_outline28" fill="none" stroke="none" d="M80.50000578910112,77.49999660998583h83a5,5,0,0,1,5,5v18a5,5,0,0,1,-5,5h-83a5,5,0,0,1,-5,-5v-18a5,5,0,0,1,5,-5z" stroke-width="3"></path><g id="node_text28" fill="black"><text id="kity_text_181" text-rendering="inherit" font-family="宋体,SimSun" font-size="18" dy=".8em" y="82.49999660998583" x="85.50000578910112">新建主机</text></g></g><g id="minder_node30"><g id="node_expander28" style="cursor: pointer;" display="none"><path id="kity_path_357" fill="white" stroke="gray" d="M180.50000711530447,149.49999747425318A6,6,0,1,1,168.50000711530447,149.49999747425318A6,6,0,1,1,180.50000711530447,149.49999747425318"></path><path id="kity_path_358" fill="none" stroke="gray"></path></g><path id="node_outline29" fill="none" stroke="none" d="M80.50000578910112,135.49999747425318h83a5,5,0,0,1,5,5v18a5,5,0,0,1,-5,5h-83a5,5,0,0,1,-5,-5v-18a5,5,0,0,1,5,-5z" stroke-width="3"></path><g id="node_text29" fill="black"><text id="kity_text_183" text-rendering="inherit" font-family="宋体,SimSun" font-size="18" dy=".8em" y="140.49999747425318" x="85.50000578910112">编辑主机</text></g></g><g id="minder_node31"><g id="node_expander29" style="cursor: pointer;" display="none"><path id="kity_path_360" fill="white" stroke="gray" d="M180.50000711530447,207.49999833852053A6,6,0,1,1,168.50000711530447,207.49999833852053A6,6,0,1,1,180.50000711530447,207.49999833852053"></path><path id="kity_path_361" fill="none" stroke="gray"></path></g><path id="node_outline30" fill="none" stroke="none" d="M80.50000578910112,193.49999833852053h83a5,5,0,0,1,5,5v18a5,5,0,0,1,-5,5h-83a5,5,0,0,1,-5,-5v-18a5,5,0,0,1,5,-5z" stroke-width="3"></path><g id="node_text30" fill="black"><text id="kity_text_185" text-rendering="inherit" font-family="宋体,SimSun" font-size="18" dy=".8em" y="198.49999833852053" x="85.50000578910112">删除主机</text></g></g><g id="minder_node32"><g id="node_expander30" style="cursor: pointer;" display="none"><path id="kity_path_363" fill="white" stroke="gray" d="M180.50000711530447,265.4999992027879A6,6,0,1,1,168.50000711530447,265.4999992027879A6,6,0,1,1,180.50000711530447,265.4999992027879"></path><path id="kity_path_364" fill="none" stroke="gray"></path></g><path id="node_outline31" fill="none" stroke="none" d="M73.500005684793,251.49999920278788h90a5,5,0,0,1,5,5v18a5,5,0,0,1,-5,5h-90a5,5,0,0,1,-5,-5v-18a5,5,0,0,1,5,-5z" stroke-width="3"></path><g id="node_text31" fill="black"><text id="kity_text_187" text-rendering="inherit" font-family="宋体,SimSun" font-size="18" dy=".8em" y="256.4999992027879" x="78.500005684793">Web SSH</text></g></g><g id="minder_node33"><g id="node_expander36" style="cursor: pointer;"><path id="kity_path_381" fill="white" stroke="gray" d="M333.50000939518213,420.50000151246786A6,6,0,1,1,321.50000939518213,420.50000151246786A6,6,0,1,1,333.50000939518213,420.50000151246786"></path><path id="kity_path_382" fill="none" stroke="gray" d="M323.00000939518213,420.50000151246786L332.00000939518213,420.50000151246786"></path></g><path id="node_outline37" fill="rgb(238, 243, 246)" stroke="rgb(115, 161, 191)" d="M211.50000791996717,405.50000151246786h106a3,3,0,0,1,3,3v24a3,3,0,0,1,-3,3h-106a3,3,0,0,1,-3,-3v-24a3,3,0,0,1,3,-3z" stroke-width="1"></path><g id="node_text37" fill="black"><text id="kity_text_199" text-rendering="inherit" font-family="宋体,SimSun" font-size="18" dy=".8em" y="411.50000151246786" x="228.50000791996717">菜单管理</text></g></g><g id="minder_node34"><g id="node_expander32" style="cursor: pointer;" display="none"><path id="kity_path_369" fill="white" stroke="gray" d="M180.50000711530447,333.50000021606684A6,6,0,1,1,168.50000711530447,333.50000021606684A6,6,0,1,1,180.50000711530447,333.50000021606684"></path><path id="kity_path_370" fill="none" stroke="gray"></path></g><path id="node_outline33" fill="none" stroke="none" d="M81.50000580400229,319.50000021606684h82a5,5,0,0,1,5,5v18a5,5,0,0,1,-5,5h-82a5,5,0,0,1,-5,-5v-18a5,5,0,0,1,5,-5z" stroke-width="3"></path><g id="node_text33" fill="black"><text id="kity_text_191" text-rendering="inherit" font-family="宋体,SimSun" font-size="18" dy=".8em" y="324.50000021606684" x="86.50000580400229">菜单列表</text></g></g><g id="minder_node35"><g id="node_expander33" style="cursor: pointer;" display="none"><path id="kity_path_372" fill="white" stroke="gray" d="M180.50000711530447,391.5000010803342A6,6,0,1,1,168.50000711530447,391.5000010803342A6,6,0,1,1,180.50000711530447,391.5000010803342"></path><path id="kity_path_373" fill="none" stroke="gray"></path></g><path id="node_outline34" fill="none" stroke="none" d="M81.50000580400229,377.5000010803342h82a5,5,0,0,1,5,5v18a5,5,0,0,1,-5,5h-82a5,5,0,0,1,-5,-5v-18a5,5,0,0,1,5,-5z" stroke-width="3"></path><g id="node_text34" fill="black"><text id="kity_text_193" text-rendering="inherit" font-family="宋体,SimSun" font-size="18" dy=".8em" y="382.5000010803342" x="86.50000580400229">新建菜单</text></g></g><g id="minder_node36"><g id="node_expander34" style="cursor: pointer;" display="none"><path id="kity_path_375" fill="white" stroke="gray" d="M180.50000711530447,449.50000194460154A6,6,0,1,1,168.50000711530447,449.50000194460154A6,6,0,1,1,180.50000711530447,449.50000194460154"></path><path id="kity_path_376" fill="none" stroke="gray"></path></g><path id="node_outline35" fill="none" stroke="none" d="M81.50000580400229,435.50000194460154h82a5,5,0,0,1,5,5v18a5,5,0,0,1,-5,5h-82a5,5,0,0,1,-5,-5v-18a5,5,0,0,1,5,-5z" stroke-width="3"></path><g id="node_text35" fill="black"><text id="kity_text_195" text-rendering="inherit" font-family="宋体,SimSun" font-size="18" dy=".8em" y="440.50000194460154" x="86.50000580400229">编辑菜单</text></g></g><g id="minder_node37"><g id="node_expander35" style="cursor: pointer;" display="none"><path id="kity_path_378" fill="white" stroke="gray" d="M180.50000711530447,507.5000028088689A6,6,0,1,1,168.50000711530447,507.5000028088689A6,6,0,1,1,180.50000711530447,507.5000028088689"></path><path id="kity_path_379" fill="none" stroke="gray"></path></g><path id="node_outline36" fill="none" stroke="none" d="M81.50000580400229,493.5000028088689h82a5,5,0,0,1,5,5v18a5,5,0,0,1,-5,5h-82a5,5,0,0,1,-5,-5v-18a5,5,0,0,1,5,-5z" stroke-width="3"></path><g id="node_text36" fill="black"><text id="kity_text_197" text-rendering="inherit" font-family="宋体,SimSun" font-size="18" dy=".8em" y="498.5000028088689" x="86.50000580400229">删除菜单</text></g></g><g id="minder_node38"><g id="node_expander41" style="cursor: pointer;"><path id="kity_path_396" fill="white" stroke="gray" d="M333.50000939518213,662.5000051185489A6,6,0,1,1,321.50000939518213,662.5000051185489A6,6,0,1,1,333.50000939518213,662.5000051185489"></path><path id="kity_path_397" fill="none" stroke="gray" d="M323.00000939518213,662.5000051185489L332.00000939518213,662.5000051185489"></path></g><path id="node_outline42" fill="rgb(238, 243, 246)" stroke="rgb(115, 161, 191)" d="M174.5000073686242,647.5000051185489h143a3,3,0,0,1,3,3v24a3,3,0,0,1,-3,3h-143a3,3,0,0,1,-3,-3v-24a3,3,0,0,1,3,-3z" stroke-width="1"></path><g id="node_text42" fill="black"><text id="kity_text_209" text-rendering="inherit" font-family="宋体,SimSun" font-size="18" dy=".8em" y="653.5000051185489" x="191.5000073686242">容器管理模块</text></g></g><g id="minder_node39"><g id="node_expander37" style="cursor: pointer;" display="none"><path id="kity_path_384" fill="white" stroke="gray" d="M143.5000065639615,575.5000038221478A6,6,0,1,1,131.5000065639615,575.5000038221478A6,6,0,1,1,143.5000065639615,575.5000038221478"></path><path id="kity_path_385" fill="none" stroke="gray"></path></g><path id="node_outline38" fill="none" stroke="none" d="M25.500004969537258,561.5000038221478h101a5,5,0,0,1,5,5v18a5,5,0,0,1,-5,5h-101a5,5,0,0,1,-5,-5v-18a5,5,0,0,1,5,-5z" stroke-width="3"></path><g id="node_text38" fill="black"><text id="kity_text_201" text-rendering="inherit" font-family="宋体,SimSun" font-size="18" dy=".8em" y="566.5000038221478" x="30.500004969537258">数据卷管理</text></g></g><g id="minder_node40"><g id="node_expander38" style="cursor: pointer;" display="none"><path id="kity_path_387" fill="white" stroke="gray" d="M143.5000065639615,633.5000046864152A6,6,0,1,1,131.5000065639615,633.5000046864152A6,6,0,1,1,143.5000065639615,633.5000046864152"></path><path id="kity_path_388" fill="none" stroke="gray"></path></g><path id="node_outline39" fill="none" stroke="none" d="M43.50000523775816,619.5000046864152h83a5,5,0,0,1,5,5v18a5,5,0,0,1,-5,5h-83a5,5,0,0,1,-5,-5v-18a5,5,0,0,1,5,-5z" stroke-width="3"></path><g id="node_text39" fill="black"><text id="kity_text_203" text-rendering="inherit" font-family="宋体,SimSun" font-size="18" dy=".8em" y="624.5000046864152" x="48.50000523775816">容器管理</text></g></g><g id="minder_node41"><g id="node_expander39" style="cursor: pointer;" display="none"><path id="kity_path_390" fill="white" stroke="gray" d="M143.5000065639615,691.5000055506825A6,6,0,1,1,131.5000065639615,691.5000055506825A6,6,0,1,1,143.5000065639615,691.5000055506825"></path><path id="kity_path_391" fill="none" stroke="gray"></path></g><path id="node_outline40" fill="none" stroke="none" d="M44.50000525265932,677.5000055506825h82a5,5,0,0,1,5,5v18a5,5,0,0,1,-5,5h-82a5,5,0,0,1,-5,-5v-18a5,5,0,0,1,5,-5z" stroke-width="3"></path><g id="node_text40" fill="black"><text id="kity_text_205" text-rendering="inherit" font-family="宋体,SimSun" font-size="18" dy=".8em" y="682.5000055506825" x="49.50000525265932">镜像管理</text></g></g><g id="minder_node42"><g id="node_expander40" style="cursor: pointer;" display="none"><path id="kity_path_393" fill="white" stroke="gray" d="M143.5000065639615,749.5000064149499A6,6,0,1,1,131.5000065639615,749.5000064149499A6,6,0,1,1,143.5000065639615,749.5000064149499"></path><path id="kity_path_394" fill="none" stroke="gray"></path></g><path id="node_outline41" fill="none" stroke="none" d="M44.50000525265932,735.5000064149499h82a5,5,0,0,1,5,5v18a5,5,0,0,1,-5,5h-82a5,5,0,0,1,-5,-5v-18a5,5,0,0,1,5,-5z" stroke-width="3"></path><g id="node_text41" fill="black"><text id="kity_text_207" text-rendering="inherit" font-family="宋体,SimSun" font-size="18" dy=".8em" y="740.5000064149499" x="49.50000525265932">网络管理</text></g></g><g id="minder_node43"><g id="node_expander46" style="cursor: pointer;"><path id="kity_path_411" fill="white" stroke="gray" d="M333.50000939518213,904.5000087246299A6,6,0,1,1,321.50000939518213,904.5000087246299A6,6,0,1,1,333.50000939518213,904.5000087246299"></path><path id="kity_path_412" fill="none" stroke="gray" d="M323.00000939518213,904.5000087246299L332.00000939518213,904.5000087246299"></path></g><path id="node_outline47" fill="rgb(238, 243, 246)" stroke="rgb(115, 161, 191)" d="M211.50000791996717,889.5000087246299h106a3,3,0,0,1,3,3v24a3,3,0,0,1,-3,3h-106a3,3,0,0,1,-3,-3v-24a3,3,0,0,1,3,-3z" stroke-width="1"></path><g id="node_text47" fill="black"><text id="kity_text_219" text-rendering="inherit" font-family="宋体,SimSun" font-size="18" dy=".8em" y="895.5000087246299" x="228.50000791996717">接口管理</text></g></g><g id="minder_node44"><g id="node_expander42" style="cursor: pointer;" display="none"><path id="kity_path_399" fill="white" stroke="gray" d="M180.50000711530447,817.5000074282289A6,6,0,1,1,168.50000711530447,817.5000074282289A6,6,0,1,1,180.50000711530447,817.5000074282289"></path><path id="kity_path_400" fill="none" stroke="gray"></path></g><path id="node_outline43" fill="none" stroke="none" d="M81.50000580400229,803.5000074282289h82a5,5,0,0,1,5,5v18a5,5,0,0,1,-5,5h-82a5,5,0,0,1,-5,-5v-18a5,5,0,0,1,5,-5z" stroke-width="3"></path><g id="node_text43" fill="black"><text id="kity_text_211" text-rendering="inherit" font-family="宋体,SimSun" font-size="18" dy=".8em" y="808.5000074282289" x="86.50000580400229">接口列表</text></g></g><g id="minder_node45"><g id="node_expander43" style="cursor: pointer;" display="none"><path id="kity_path_402" fill="white" stroke="gray" d="M180.50000711530447,875.5000082924962A6,6,0,1,1,168.50000711530447,875.5000082924962A6,6,0,1,1,180.50000711530447,875.5000082924962"></path><path id="kity_path_403" fill="none" stroke="gray"></path></g><path id="node_outline44" fill="none" stroke="none" d="M81.50000580400229,861.5000082924962h82a5,5,0,0,1,5,5v18a5,5,0,0,1,-5,5h-82a5,5,0,0,1,-5,-5v-18a5,5,0,0,1,5,-5z" stroke-width="3"></path><g id="node_text44" fill="black"><text id="kity_text_213" text-rendering="inherit" font-family="宋体,SimSun" font-size="18" dy=".8em" y="866.5000082924962" x="86.50000580400229">新建接口</text></g></g><g id="minder_node46"><g id="node_expander44" style="cursor: pointer;" display="none"><path id="kity_path_405" fill="white" stroke="gray" d="M180.50000711530447,933.5000091567636A6,6,0,1,1,168.50000711530447,933.5000091567636A6,6,0,1,1,180.50000711530447,933.5000091567636"></path><path id="kity_path_406" fill="none" stroke="gray"></path></g><path id="node_outline45" fill="none" stroke="none" d="M81.50000580400229,919.5000091567636h82a5,5,0,0,1,5,5v18a5,5,0,0,1,-5,5h-82a5,5,0,0,1,-5,-5v-18a5,5,0,0,1,5,-5z" stroke-width="3"></path><g id="node_text45" fill="black"><text id="kity_text_215" text-rendering="inherit" font-family="宋体,SimSun" font-size="18" dy=".8em" y="924.5000091567636" x="86.50000580400229">编辑接口</text></g></g><g id="minder_node47"><g id="node_expander45" style="cursor: pointer;" display="none"><path id="kity_path_408" fill="white" stroke="gray" d="M180.50000711530447,991.5000100210309A6,6,0,1,1,168.50000711530447,991.5000100210309A6,6,0,1,1,180.50000711530447,991.5000100210309"></path><path id="kity_path_409" fill="none" stroke="gray"></path></g><path id="node_outline46" fill="none" stroke="none" d="M81.50000580400229,977.5000100210309h82a5,5,0,0,1,5,5v18a5,5,0,0,1,-5,5h-82a5,5,0,0,1,-5,-5v-18a5,5,0,0,1,5,-5z" stroke-width="3"></path><g id="node_text46" fill="black"><text id="kity_text_217" text-rendering="inherit" font-family="宋体,SimSun" font-size="18" dy=".8em" y="982.5000100210309" x="86.50000580400229">删除接口</text></g></g><g id="minder_node48"><g id="node_expander49" style="cursor: pointer;"><path id="kity_path_420" fill="white" stroke="gray" d="M333.50000939518213,1088.5000114664435A6,6,0,1,1,321.50000939518213,1088.5000114664435A6,6,0,1,1,333.50000939518213,1088.5000114664435"></path><path id="kity_path_421" fill="none" stroke="gray" d="M323.00000939518213,1088.5000114664435L332.00000939518213,1088.5000114664435"></path></g><path id="node_outline50" fill="rgb(238, 243, 246)" stroke="rgb(115, 161, 191)" d="M210.500007905066,1073.5000114664435h107a3,3,0,0,1,3,3v24a3,3,0,0,1,-3,3h-107a3,3,0,0,1,-3,-3v-24a3,3,0,0,1,3,-3z" stroke-width="1"></path><g id="node_text50" fill="black"><text id="kity_text_225" text-rendering="inherit" font-family="宋体,SimSun" font-size="18" dy=".8em" y="1079.5000114664435" x="227.500007905066">监控中心</text></g></g><g id="minder_node49"><g id="node_expander47" style="cursor: pointer;" display="none"><path id="kity_path_414" fill="white" stroke="gray" d="M179.5000071004033,1059.5000110343099A6,6,0,1,1,167.5000071004033,1059.5000110343099A6,6,0,1,1,179.5000071004033,1059.5000110343099"></path><path id="kity_path_415" fill="none" stroke="gray"></path></g><path id="node_outline48" fill="none" stroke="none" d="M80.50000578910112,1045.5000110343099h82a5,5,0,0,1,5,5v18a5,5,0,0,1,-5,5h-82a5,5,0,0,1,-5,-5v-18a5,5,0,0,1,5,-5z" stroke-width="3"></path><g id="node_text48" fill="black"><text id="kity_text_221" text-rendering="inherit" font-family="宋体,SimSun" font-size="18" dy=".8em" y="1050.5000110343099" x="85.50000578910112">主机监控</text></g></g><g id="minder_node50"><g id="node_expander48" style="cursor: pointer;" display="none"><path id="kity_path_417" fill="white" stroke="gray" d="M179.5000071004033,1117.5000118985772A6,6,0,1,1,167.5000071004033,1117.5000118985772A6,6,0,1,1,179.5000071004033,1117.5000118985772"></path><path id="kity_path_418" fill="none" stroke="gray"></path></g><path id="node_outline49" fill="none" stroke="none" d="M79.50000577419996,1103.5000118985772h83a5,5,0,0,1,5,5v18a5,5,0,0,1,-5,5h-83a5,5,0,0,1,-5,-5v-18a5,5,0,0,1,5,-5z" stroke-width="3"></path><g id="node_text49" fill="black"><text id="kity_text_223" text-rendering="inherit" font-family="宋体,SimSun" font-size="18" dy=".8em" y="1108.5000118985772" x="84.50000577419996">容器监控</text></g></g></g></g></svg>